<svg xmlns="http://www.w3.org/2000/svg" width="240" height="240" viewBox="0 0 240 240">
  <g fill="#5C3D2E" fill-opacity="0.07">
    <!-- Almendra 1 -->
    <ellipse cx="30" cy="35" rx="15" ry="8" transform="rotate(35 30 35)"/>
    <!-- Nuez (dos lóbulos) -->
    <ellipse cx="130" cy="25" rx="11" ry="9" transform="rotate(-10 130 25)"/>
    <ellipse cx="141" cy="30" rx="11" ry="9" transform="rotate(15 141 30)"/>
    <!-- Maní (dos círculos conectados) -->
    <ellipse cx="205" cy="60" rx="9" ry="7" transform="rotate(20 205 60)"/>
    <ellipse cx="216" cy="70" rx="8" ry="6.5" transform="rotate(20 216 70)"/>
    <!-- Semilla chica -->
    <ellipse cx="70" cy="90" rx="5" ry="3" transform="rotate(50 70 90)"/>
    <!-- Almendra 2 -->
    <ellipse cx="170" cy="110" rx="14" ry="7.5" transform="rotate(-25 170 110)"/>
    <!-- Nuez 2 -->
    <ellipse cx="35" cy="140" rx="10" ry="8.5" transform="rotate(5 35 140)"/>
    <ellipse cx="46" cy="146" rx="10" ry="8.5" transform="rotate(-20 46 146)"/>
    <!-- Hoja chica -->
    <path d="M100 150 Q108 140 118 150 Q108 160 100 150 Z" transform="rotate(20 108 150)"/>
    <!-- Maní 2 -->
    <ellipse cx="60" cy="190" rx="8.5" ry="6.5" transform="rotate(-15 60 190)"/>
    <ellipse cx="70" cy="198" rx="8" ry="6" transform="rotate(-15 70 198)"/>
    <!-- Almendra 3 -->
    <ellipse cx="200" cy="185" rx="13" ry="7" transform="rotate(60 200 185)"/>
    <!-- Semilla chica 2 -->
    <ellipse cx="150" cy="205" rx="5" ry="3" transform="rotate(-30 150 205)"/>
    <!-- Nuez 3, arriba derecha del tile -->
    <ellipse cx="215" cy="15" rx="9" ry="7.5" transform="rotate(10 215 15)"/>
  </g>
</svg>